<svg xmlns="http://www.w3.org/2000/svg" width="1200" height="430" viewBox="0 0 1200 430" role="img" aria-labelledby="title desc">
  <title id="title">Product-Skills architecture</title>
  <desc id="desc">Business intent is guided through an AI coding agent with Product-Skills into a working React preview that developers continue toward production.</desc>
  <defs>
    <marker id="arrow" viewBox="0 0 10 10" refX="8" refY="5" markerWidth="8" markerHeight="8" orient="auto">
      <path d="M0,0 L10,5 L0,10 Z" fill="#64748b"/>
    </marker>
  </defs>
  <rect width="1200" height="430" rx="24" fill="#f8fafc"/>
  <text x="54" y="62" font-family="system-ui,-apple-system,Segoe UI,sans-serif" font-size="20" font-weight="700" fill="#0f172a">From business intent to production-ready momentum</text>
  <text x="54" y="92" font-family="system-ui,-apple-system,Segoe UI,sans-serif" font-size="16" fill="#475569">Product-Skills guides the agent only where guidance improves speed or reliability.</text>
  <g transform="translate(54 132)">
    <rect width="270" height="180" rx="18" fill="#ffffff" stroke="#cbd5e1" stroke-width="1.5"/>
    <circle cx="42" cy="44" r="22" fill="#fff1ed"/>
    <path d="M32 48c0-6 4-10 10-10s10 4 10 10" fill="none" stroke="#e85d3f" stroke-width="2.4" stroke-linecap="round"/>
    <circle cx="42" cy="31" r="5" fill="none" stroke="#e85d3f" stroke-width="2.4"/>
    <text x="76" y="40" font-family="system-ui,-apple-system,Segoe UI,sans-serif" font-size="14" font-weight="700" fill="#e85d3f">INPUT</text>
    <text x="30" y="86" font-family="system-ui,-apple-system,Segoe UI,sans-serif" font-size="25" font-weight="750" fill="#0f172a">PM / BA intent</text>
    <text x="30" y="120" font-family="system-ui,-apple-system,Segoe UI,sans-serif" font-size="17" fill="#475569">Goal · users · workflow</text>
    <text x="30" y="150" font-family="system-ui,-apple-system,Segoe UI,sans-serif" font-size="17" fill="#475569">Rules · acceptance path</text>
  </g>
  <path d="M342 222 H405" stroke="#64748b" stroke-width="2.5" fill="none" marker-end="url(#arrow)"/>
  <g transform="translate(426 112)">
    <rect width="350" height="220" rx="20" fill="#0f172a"/>
    <circle cx="46" cy="48" r="24" fill="#ff7256"/>
    <path d="M36 48h20M46 38v20" stroke="#ffffff" stroke-width="2.6" stroke-linecap="round"/>
    <text x="84" y="43" font-family="system-ui,-apple-system,Segoe UI,sans-serif" font-size="14" font-weight="700" fill="#94a3b8">AI CODING AGENT</text>
    <text x="84" y="69" font-family="system-ui,-apple-system,Segoe UI,sans-serif" font-size="24" font-weight="750" fill="#ffffff">AI coding agent</text>
    <text x="28" y="102" font-family="system-ui,-apple-system,Segoe UI,sans-serif" font-size="16" fill="#cbd5e1">ChatGPT · Claude Code · Codex · Cursor</text>
    <text x="28" y="130" font-family="system-ui,-apple-system,Segoe UI,sans-serif" font-size="15" font-weight="700" fill="#94a3b8">PRODUCT-SKILLS ADDS</text>
    <g font-family="system-ui,-apple-system,Segoe UI,sans-serif" font-size="16" font-weight="650">
      <rect x="28" y="146" width="138" height="36" rx="10" fill="#1e293b"/>
      <text x="46" y="170" fill="#ffffff">Instructions</text>
      <rect x="178" y="146" width="116" height="36" rx="10" fill="#1e293b"/>
      <text x="204" y="170" fill="#ffffff">Skills</text>
      <rect x="28" y="184" width="116" height="36" rx="10" fill="#1e293b"/>
      <text x="50" y="208" fill="#ffffff">Context</text>
      <rect x="156" y="184" width="138" height="36" rx="10" fill="#1e293b"/>
      <text x="178" y="208" fill="#ffffff">Verification</text>
    </g>
  </g>
  <path d="M796 222 H859" stroke="#64748b" stroke-width="2.5" fill="none" marker-end="url(#arrow)"/>
  <g transform="translate(880 132)">
    <rect width="266" height="180" rx="18" fill="#ffffff" stroke="#cbd5e1" stroke-width="1.5"/>
    <circle cx="42" cy="44" r="22" fill="#eef2ff"/>
    <rect x="32" y="34" width="20" height="15" rx="2" fill="none" stroke="#4f46e5" stroke-width="2.2"/>
    <path d="M36 54h12" stroke="#4f46e5" stroke-width="2.2" stroke-linecap="round"/>
    <text x="76" y="40" font-family="system-ui,-apple-system,Segoe UI,sans-serif" font-size="14" font-weight="700" fill="#4f46e5">OUTPUT</text>
    <text x="30" y="86" font-family="system-ui,-apple-system,Segoe UI,sans-serif" font-size="25" font-weight="750" fill="#0f172a">Working React</text>
    <text x="30" y="120" font-family="system-ui,-apple-system,Segoe UI,sans-serif" font-size="17" fill="#475569">Verified main journey</text>
    <text x="30" y="150" font-family="system-ui,-apple-system,Segoe UI,sans-serif" font-size="17" fill="#475569">Shareable Vercel preview</text>
  </g>
  <g transform="translate(110 370)" font-family="system-ui,-apple-system,Segoe UI,sans-serif">
    <line x1="18" y1="0" x2="962" y2="0" stroke="#cbd5e1" stroke-width="2"/>
    <circle cx="18" cy="0" r="8" fill="#ff7256"/>
    <circle cx="336" cy="0" r="8" fill="#818cf8"/>
    <circle cx="654" cy="0" r="8" fill="#34d399"/>
    <circle cx="962" cy="0" r="8" fill="#0f172a"/>
    <text x="18" y="34" text-anchor="middle" font-size="17" font-weight="700" fill="#0f172a">Preview</text>
    <text x="336" y="34" text-anchor="middle" font-size="17" font-weight="700" fill="#0f172a">Feedback</text>
    <text x="654" y="34" text-anchor="middle" font-size="17" font-weight="700" fill="#0f172a">Developer continues</text>
    <text x="962" y="34" text-anchor="middle" font-size="17" font-weight="700" fill="#0f172a">Production</text>
  </g>
</svg>